<svg width="59" height="66" viewBox="0 0 59 66" fill="none" xmlns="http://www.w3.org/2000/svg">
<path d="M26.6406 0.5C16.4082 0.5 8.09 8.74662 8.08984 18.8711C8.08984 28.9957 16.4081 37.2432 26.6406 37.2432H27.1406V37.249C37.1427 36.9855 45.1914 28.8439 45.1914 18.8848C45.1913 8.75986 36.8725 0.500081 26.6406 0.5ZM26.6406 0.524414C36.8511 0.524495 45.1571 8.74534 45.1572 18.8711C45.1572 28.997 36.8512 37.2187 26.6406 37.2188C16.4299 37.2188 8.12305 28.997 8.12305 18.8711C8.12321 8.74529 16.43 0.524414 26.6406 0.524414ZM26.6406 4.26855C18.517 4.26855 11.8947 10.8225 11.8945 18.8711C11.8945 26.9201 18.5034 33.4736 26.6406 33.4736C34.7778 33.4736 41.3867 26.9201 41.3867 18.8711C41.3866 10.8225 34.7642 4.26864 26.6406 4.26855ZM26.6406 4.66211C32.5671 4.66217 37.6796 8.25448 39.8652 13.3486C40.5947 15.0488 40.9941 16.9183 40.9941 18.8848C40.9941 26.7303 34.5491 33.1083 26.6406 33.1084C18.732 33.1084 12.2861 26.7303 12.2861 18.8848C12.2863 11.0394 18.7321 4.66211 26.6406 4.66211Z" fill="#0A2555" stroke="#0A2555"/>
<path d="M2.87524 45.4171C4.46052 45.7311 8.41683 47.3698 16.7568 46.4549C16.8808 46.3729 17.0187 46.291 17.1566 46.2091C20.6717 44.2018 25.0554 44.4202 28.4741 46.5641L30.3351 47.7384L38.3028 48.0252C40.5084 47.9979 41.5147 49.5273 41.5285 50.7426C41.5285 51.0976 41.4872 51.439 41.4044 51.7531L46.3671 49.4863L52.0741 37.8248C52.653 36.5686 54.3486 35.7766 56.1269 36.5822C57.8087 37.3469 58.2222 38.9309 57.6019 40.2827L51.3021 53.9242L37.9858 61.4755C35.0633 63.1278 32.265 64.5889 28.736 64.5889H22.3122C20.3409 64.5889 18.3834 64.3567 16.4673 63.9198L16.357 63.8925C12.8143 63.0732 9.16122 62.9503 5.56332 63.4145C4.76379 63.5101 3.88155 63.7149 3.17851 63.8788C0.0906639 64.5889 -0.198826 44.8299 2.87524 45.4171Z" fill="#E8E8E8"/>
<path d="M22.2985 65.3397H28.7224C32.3892 65.3397 35.2427 63.8786 38.3443 62.1307L51.6745 54.5794C51.8123 54.4975 51.9226 54.3883 51.9915 54.238L58.2913 40.5966C59.1322 38.7395 58.3602 36.7731 56.4441 35.8992C54.2109 34.8887 52.1294 35.9265 51.3988 37.5105L45.8158 48.9125L42.2868 50.5238C42.2179 49.7319 41.8733 48.9672 41.2943 48.38C40.7705 47.8611 39.8331 47.233 38.303 47.2603L30.5833 46.9872L28.9016 45.9221C25.152 43.5734 20.5203 43.4232 16.7983 45.5534C16.7018 45.608 16.6053 45.6626 16.5226 45.7172C9.76791 46.441 6.04595 45.4441 4.04712 44.9116C3.64735 44.8024 3.31651 44.7204 3.04081 44.6658C2.66861 44.5975 1.93801 44.6112 1.34525 45.5261C-0.584656 48.4756 -0.391666 60.9291 1.63474 63.783C2.26885 64.6706 2.99946 64.6706 3.37165 64.575C4.01955 64.4248 4.91558 64.2199 5.67376 64.1244C9.32679 63.6601 12.8696 63.8239 16.2055 64.5886L16.3158 64.6159C18.2871 65.0802 20.3135 65.3124 22.3261 65.3124L22.2985 65.3397ZM50.7233 53.3914L37.6137 60.8335C34.7051 62.4857 32.0308 63.8513 28.7361 63.8513H22.3123C20.41 63.8513 18.5076 63.6328 16.6467 63.1958L16.5364 63.1685C13.035 62.3492 9.31301 62.1853 5.46698 62.6769C4.62609 62.7862 3.68871 63.0046 2.99946 63.1548C2.54455 62.9637 1.59338 60.3692 1.46932 55.0164C1.33147 49.2949 2.26885 46.3727 2.76511 46.1542C2.9581 46.2088 3.24759 46.2771 3.63357 46.3863C5.75647 46.9462 9.6852 47.9977 16.8396 47.2057C16.9499 47.2057 17.0602 47.151 17.1705 47.0964C17.2946 47.0145 17.4186 46.9462 17.5427 46.8779C20.7684 45.0345 24.8074 45.1574 28.0882 47.2193L29.9492 48.3936C30.0595 48.4619 30.1974 48.5029 30.3214 48.5029L38.2892 48.7896C39.1163 48.7896 39.778 49.0081 40.2191 49.4588C40.5775 49.8138 40.7843 50.3054 40.7981 50.7696C40.7981 51.0291 40.7705 51.2749 40.7291 51.4934C40.7016 51.548 40.6878 51.6026 40.6878 51.6572C40.4121 52.5448 39.6539 53.05 38.5373 53.0637L31.3415 53.1593H23.4289C23.0153 53.1593 22.6707 53.487 22.6707 53.9103C22.6707 54.3336 23.0016 54.6614 23.4289 54.6614H31.3415L38.5373 54.5658C40.2329 54.5385 41.5149 53.6782 42.0387 52.3127L46.6981 50.1825C46.8497 50.1142 46.9875 49.9913 47.0565 49.8274L52.7635 38.166C53.1908 37.2374 54.4453 36.6502 55.8238 37.2784C57.1747 37.8929 57.3539 39.0809 56.9266 39.9957L50.7233 53.4051V53.3914Z" fill="#0A2555"/>
</svg>
