<svg width="52" height="65" viewBox="0 0 52 65" fill="none" xmlns="http://www.w3.org/2000/svg">
<path d="M28.2304 62.8153H1.80194V50.2649C1.80194 40.0222 10.1478 31.708 20.3588 31.708C27.4085 31.708 33.7627 35.628 36.9556 41.919C37.1769 42.3616 37.7143 42.5513 38.1569 42.33C38.5995 42.1087 38.7892 41.5713 38.5679 41.1287C35.9124 35.8493 31.2337 32.1189 25.7014 30.6331C31.613 28.3254 35.8492 22.5718 35.8492 15.8698C35.8492 7.11296 28.7362 0 19.9794 0C11.2226 0 4.10969 7.08134 4.10969 15.8382C4.10969 22.6982 8.5039 28.515 14.6052 30.728C6.16454 33.2254 0 41.0338 0 50.2649V63.7005C0 64.2063 0.410969 64.5856 0.885165 64.5856H28.2304C28.7362 64.5856 29.1156 64.1747 29.1156 63.7005C29.1156 63.2263 28.7046 62.8153 28.2304 62.8153ZM5.91163 15.8382C5.91163 8.06135 12.2342 1.77034 19.9794 1.77034C27.7246 1.77034 34.0472 8.09296 34.0472 15.8382C34.0472 23.5834 27.7246 29.906 19.9794 29.906C12.2342 29.906 5.91163 23.5834 5.91163 15.8382Z" fill="#0A2555"/>
<path d="M51.6887 45.9338C51.3093 45.6177 50.7403 45.6493 50.4242 46.0286L36.4828 62.0881L32.7209 55.3861C32.468 54.9436 31.9306 54.7855 31.488 55.0384C31.0454 55.2913 30.8873 55.8287 31.1402 56.2713L35.5344 64.1114C35.6925 64.3643 35.9454 64.5223 36.2299 64.5539C36.2299 64.5539 36.2931 64.5539 36.3248 64.5539C36.5777 64.5539 36.8306 64.4275 36.9886 64.2378L51.7835 47.2299C52.0997 46.8506 52.068 46.2816 51.6887 45.9654V45.9338Z" fill="#0A2555"/>
</svg>
